<?xml version="1.0" encoding="UTF-8"?>
<svg width="561px" height="616px" viewBox="0 0 561 616" xmlns="http://www.w3.org/2000/svg" xmlns:xlink="http://www.w3.org/1999/xlink" version="1.1">
 <!-- Generated by Pixelmator Pro 2.0.5 -->
 <path id="Path" d="M545.806 283.999 C545.806 424.28 432.086 537.999 291.806 537.999 151.526 537.999 37.806 424.28 37.806 283.999 37.806 143.719 151.526 30 291.806 30 432.086 30 545.806 143.719 545.806 283.999 Z" fill="#f2f2f2" fill-opacity="1" stroke="none"/>
 <path id="Path-1" d="M4.806 182.999 C4.806 323.28 -108.914 436.999 -249.194 436.999 -389.474 436.999 -503.194 323.28 -503.194 182.999 -503.194 42.719 -389.474 -71 -249.194 -71 -108.914 -71 4.806 42.719 4.806 182.999 Z" fill="#f2f2f2" fill-opacity="1" stroke="none"/>
 <path id="Path-2" d="M17.806 436 C17.806 444.284 -107.107 451 -261.194 451 -415.281 451 -540.194 444.284 -540.194 436 -540.194 427.716 -415.281 421 -261.194 421 -107.107 421 17.806 427.716 17.806 436 Z" fill="#3f3d56" fill-opacity="1" stroke="none"/>
 <path id="Path-3" d="M560.806 540.5 C560.806 549.613 435.893 557 281.806 557 127.719 557 2.806 549.613 2.806 540.5 2.806 531.387 127.719 524 281.806 524 435.893 524 560.806 531.387 560.806 540.5 Z" fill="#3f3d56" fill-opacity="1" stroke="none"/>
 <path id="Path-4" d="M434.806 541.069 C434.806 547.354 341.233 552.448 225.806 552.448 110.378 552.448 16.806 547.354 16.806 541.069 16.806 534.784 110.378 529.69 225.806 529.69 341.233 529.69 434.806 534.784 434.806 541.069 Z" fill="#000000" fill-opacity="1" stroke="none"/>
 <path id="Path-5" d="M17.946 502 C17.946 506.971 -61.766 511 -160.097 511 -258.428 511 -338.141 506.971 -338.141 502 -338.141 497.029 -258.428 493 -160.097 493 -61.766 493 17.946 497.029 17.946 502 Z" fill="#3f3d56" fill-opacity="1" stroke="none"/>
 <path id="Path-6" d="M551.806 607 C551.806 611.463 480.226 615.082 391.927 615.082 303.628 615.082 232.048 611.463 232.048 607 232.048 602.537 303.628 598.918 391.927 598.918 480.226 598.918 551.806 602.537 551.806 607 Z" fill="#3f3d56" fill-opacity="1" stroke="none"/>
 <path id="Path-7" d="M54.806 349 L374.806 349 374.806 539 54.806 539 Z" fill="#3f3d56" fill-opacity="1" stroke="none"/>
 <path id="Path-8" d="M229.806 446 C229.806 485.765 197.57 518 157.806 518 118.041 518 85.806 485.765 85.806 446 85.806 406.236 118.041 374 157.806 374 197.57 374 229.806 406.236 229.806 446 Z" fill="#f6e05e" fill-opacity="1" stroke="none"/>
 <path id="Path-9" d="M251.806 379 L275.806 379 275.806 403 251.806 403 Z" fill="#f6e05e" fill-opacity="1" stroke="none"/>
 <path id="Path-10" d="M281.806 379 L305.806 379 305.806 403 281.806 403 Z" fill="#f6e05e" fill-opacity="1" stroke="none"/>
 <path id="Path-11" d="M311.806 379 L335.806 379 335.806 403 311.806 403 Z" fill="#f6e05e" fill-opacity="1" stroke="none"/>
 <path id="Path-12" d="M251.806 409 L275.806 409 275.806 433 251.806 433 Z" fill="#2f2e41" fill-opacity="1" stroke="none"/>
 <path id="Path-13" d="M281.806 409 L305.806 409 305.806 433 281.806 433 Z" fill="#2f2e41" fill-opacity="1" stroke="none"/>
 <path id="Path-14" d="M311.806 409 L335.806 409 335.806 433 311.806 433 Z" fill="#2f2e41" fill-opacity="1" stroke="none"/>
 <path id="Path-15" d="M251.806 439 L275.806 439 275.806 463 251.806 463 Z" fill="#ff6584" fill-opacity="1" stroke="none"/>
 <path id="Path-16" d="M281.806 439 L305.806 439 305.806 463 281.806 463 Z" fill="#ff6584" fill-opacity="1" stroke="none"/>
 <path id="Path-17" d="M311.806 439 L335.806 439 335.806 463 311.806 463 Z" fill="#ff6584" fill-opacity="1" stroke="none"/>
 <path id="Path-18" d="M157.806 374 L157.806 518 C197.57 518 231.806 485.764 231.806 446 231.806 406.236 197.57 374 157.806 374 Z" fill="#3f3d56" fill-opacity="1" stroke="none"/>
 <path id="Path-19" d="M443.306 362.5 C443.306 362.5 485.306 381.5 470.306 403.5 455.306 425.5 410.306 467.5 409.306 476.5 408.306 485.5 402.306 493.5 402.306 493.5 402.306 493.5 382.306 472.5 384.306 470.5 386.306 468.5 406.306 449.5 407.306 444.5 408.306 439.5 438.306 400.5 438.306 400.5 L411.306 376.5 Z" fill="#ffb9b9" fill-opacity="1" stroke="none"/>
 <path id="Path-20" d="M443.306 362.5 C443.306 362.5 485.306 381.5 470.306 403.5 455.306 425.5 410.306 467.5 409.306 476.5 408.306 485.5 402.306 493.5 402.306 493.5 402.306 493.5 382.306 472.5 384.306 470.5 386.306 468.5 406.306 449.5 407.306 444.5 408.306 439.5 438.306 400.5 438.306 400.5 L411.306 376.5 Z" fill="#000000" fill-opacity="1" stroke="none"/>
 <path id="Path-21" d="M390.306 404.5 C390.306 404.5 419.306 416.5 417.306 435.5 415.306 454.5 452.306 508.5 452.306 508.5 452.306 508.5 456.306 521.5 455.306 525.5 454.306 529.5 481.306 528.5 481.306 528.5 L481.306 519.5 C481.306 519.5 460.306 483.5 458.306 473.5 456.306 463.5 444.306 424.5 444.306 424.5 444.306 424.5 440.306 389.5 420.306 389.5 408.503 389.5 397.388 395.057 390.306 404.5 Z" fill="#ffb9b9" fill-opacity="1" stroke="none"/>
 <path id="Path-22" d="M391.806 314 C391.806 314 451.806 363 449.806 367 447.806 371 418.806 386 413.806 387 408.806 388 373.428 314 373.428 314 Z" fill="#2f2e41" fill-opacity="1" stroke="none"/>
 <path id="Path-23" d="M391.806 314 C391.806 314 451.806 363 449.806 367 447.806 371 418.806 386 413.806 387 408.806 388 373.428 314 373.428 314 Z" fill="#000000" fill-opacity="1" stroke="none"/>
 <path id="Path-24" d="M326.806 324 C326.806 324 320.806 351 336.806 362 352.806 373 379.806 416 382.806 416 385.806 416 428.806 393 426.806 389 424.806 385 402.806 350 402.806 350 L395.806 313 C395.806 313 334.806 311 326.806 324 Z" fill="#2f2e41" fill-opacity="1" stroke="none"/>
 <path id="Path-25" d="M391.806 236 L400.806 294 416.806 335 C416.806 335 440.806 360 426.806 362 412.806 364 404.806 335 404.806 335 L391.806 311 Z" fill="#ffb9b9" fill-opacity="1" stroke="none"/>
 <path id="Path-26" d="M391.806 236 L400.806 294 416.806 335 C416.806 335 440.806 360 426.806 362 412.806 364 404.806 335 404.806 335 L391.806 311 Z" fill="#000000" fill-opacity="1" stroke="none"/>
 <path id="Path-27" d="M358.306 171.5 C358.306 171.5 358.306 192.5 351.306 194.5 344.306 196.5 379.306 223.5 379.306 223.5 379.306 223.5 375.306 188.5 389.306 179.5 Z" fill="#ffb9b9" fill-opacity="1" stroke="none"/>
 <path id="Path-28" d="M358.306 171.5 C358.306 171.5 358.306 192.5 351.306 194.5 344.306 196.5 379.306 223.5 379.306 223.5 379.306 223.5 375.306 188.5 389.306 179.5 Z" fill="#000000" fill-opacity="1" stroke="none"/>
 <path id="Path-29" d="M397.306 165.5 C397.306 178.203 387.008 188.5 374.306 188.5 361.603 188.5 351.306 178.203 351.306 165.5 351.306 152.797 361.603 142.5 374.306 142.5 387.008 142.5 397.306 152.797 397.306 165.5 Z" fill="#ffb9b9" fill-opacity="1" stroke="none"/>
 <path id="Path-30" d="M375.306 213.5 C375.306 213.5 354.306 187.5 351.306 188.5 348.306 189.5 326.306 211.5 324.306 218.5 322.306 225.5 318.306 275.5 321.306 285.5 324.306 295.5 324.306 321.5 323.306 323.5 322.306 325.5 316.306 330.5 322.306 330.5 328.306 330.5 349.306 315.5 363.306 318.5 377.306 321.5 396.306 317.5 397.306 315.5 398.306 313.5 396.306 261.5 397.306 257.5 398.306 253.5 395.306 233.5 394.306 229.5 393.306 225.5 393.306 209.5 383.306 205.5 L379.042 205.079 378.803 214.97 Z" fill="#f6e05e" fill-opacity="1" stroke="none"/>
 <path id="Path-31" d="M331.306 265.5 C331.306 265.5 333.306 296.5 348.306 309.5 363.306 322.5 395.306 344.5 397.306 348.5 399.306 352.5 418.306 373.5 422.306 364.5 423.467 361.694 423.746 358.602 423.108 355.633 421.934 349.67 418.351 344.455 413.204 341.22 L404.306 335.5 360.306 289.5 358.306 265.5 Z" fill="#ffb9b9" fill-opacity="1" stroke="none"/>
 <path id="Path-32" d="M388.806 467 C388.806 467 377.306 464.5 373.306 471.5 369.306 478.5 377.306 497.5 377.306 497.5 377.306 497.5 400.306 545.5 404.306 539.5 408.306 533.5 401.306 511.5 401.306 511.5 401.306 511.5 411.306 489.5 407.306 488.5 403.306 487.5 388.806 479 388.806 467 Z" fill="#2f2e41" fill-opacity="1" stroke="none"/>
 <path id="Path-33" d="M459.306 524.5 C459.306 524.5 453.306 521.5 452.306 524.5 451.306 527.5 445.306 542.5 452.306 544.5 459.306 546.5 528.306 548.5 526.306 544.5 524.306 540.5 513.306 535.5 506.306 533.5 499.306 531.5 481.306 516.5 481.306 516.5 481.306 516.5 471.306 529.5 459.306 524.5 Z" fill="#2f2e41" fill-opacity="1" stroke="none"/>
 <path id="Path-34" d="M397.475 147.246 C397.043 145.795 396.092 144.553 394.804 143.759 394.87 142.204 394.68 140.649 394.24 139.157 392.77 134.813 389.289 135.062 386.004 133.141 384.579 132.308 384.667 131.571 383.925 130.202 382.953 128.408 381.497 126.922 379.723 125.914 377.615 124.572 375.391 123.189 372.898 123.019 367.659 122.662 363.642 127.59 358.635 129.171 356.428 129.868 354.056 129.897 351.838 130.556 349.619 131.215 347.405 132.788 347.075 135.079 346.922 136.137 347.191 137.222 347.036 138.279 346.729 140.38 344.885 141.852 343.651 143.581 340.922 147.403 341.234 152.802 343.416 156.961 343.876 157.821 344.402 158.645 344.99 159.424 345.172 161.389 345.737 163.3 346.652 165.05 348.834 169.208 352.59 172.316 356.513 174.898 356.192 173.518 355.997 172.113 355.931 170.698 355.876 170.227 355.937 169.749 356.11 169.307 356.547 168.393 357.701 168.151 358.581 167.65 360.405 166.614 361.12 164.321 361.172 162.225 361.225 160.129 360.781 158.029 361 155.943 361.018 154.974 361.445 154.056 362.175 153.419 362.848 153.035 363.617 152.852 364.391 152.89 368.126 152.738 372.029 152.669 375.324 150.903 376.387 150.197 377.529 149.619 378.727 149.181 381.528 148.451 384.39 150.414 386.003 152.816 387.617 155.218 388.422 158.077 389.911 160.558 391.4 163.039 393.972 165.252 396.851 164.958 397.179 164.959 397.492 164.82 397.711 164.576 397.835 164.353 397.89 164.098 397.869 163.844 L398.03 152.839 C398.164 150.957 397.976 149.065 397.475 147.246 Z" fill="#2f2e41" fill-opacity="1" stroke="none"/>
 <path id="Path-35" d="M340.306 214.5 C340.306 214.5 362.306 224.5 361.306 245.5 360.306 266.5 367.306 268.5 350.306 270.5 333.306 272.5 329.306 270.5 328.306 272.5 327.306 274.5 321.306 226.5 325.306 221.5 329.306 216.5 340.306 214.5 340.306 214.5 Z" fill="#f6e05e" fill-opacity="1" stroke="none"/>
 <path id="Path-36" d="M428.806 584.933 C428.806 605.289 416.706 612.396 401.778 612.396 401.432 612.396 401.086 612.391 400.743 612.384 400.051 612.369 399.365 612.336 398.688 612.289 385.215 611.336 374.75 603.864 374.75 584.933 374.75 565.345 399.78 540.625 401.666 538.792 L401.668 538.789 C401.74 538.717 401.778 538.682 401.778 538.682 401.778 538.682 428.806 564.579 428.806 584.933 Z" fill="#f6e05e" fill-opacity="1" stroke="none"/>
 <path id="Path-37" d="M400.793 609.282 L410.678 595.47 400.768 610.799 400.743 612.384 C400.051 612.369 399.365 612.336 398.688 612.289 L399.753 591.925 399.745 591.766 399.763 591.739 399.865 589.813 389.929 574.447 399.895 588.371 399.919 588.779 400.723 573.392 392.218 557.514 400.827 570.693 401.666 538.792 401.668 538.682 401.668 538.789 401.529 563.944 409.997 553.971 401.494 566.111 401.27 579.888 409.178 566.666 401.238 581.915 401.114 589.575 412.589 571.171 401.069 592.246 Z" fill="#3f3d56" fill-opacity="1" stroke="none"/>
</svg>
