<?xml version="1.0" encoding="UTF-8"?>
<svg width="586px" height="700px" viewBox="0 0 586 700" xmlns="http://www.w3.org/2000/svg" xmlns:xlink="http://www.w3.org/1999/xlink" version="1.1">
 <!-- Generated by Pixelmator Pro 2.0.5 -->
 <path id="Path" d="M234.806 97 C234.806 150.572 191.378 194 137.806 194 84.234 194 40.806 150.572 40.806 97 40.806 43.428 84.234 0 137.806 0 191.378 0 234.806 43.428 234.806 97 Z" fill="#ff6584" fill-opacity="1" stroke="none"/>
 <path id="Path-1" d="M565.806 266.999 C565.806 407.28 452.086 520.999 311.806 520.999 171.526 520.999 57.806 407.28 57.806 266.999 57.806 126.719 171.526 13 311.806 13 452.086 13 565.806 126.719 565.806 266.999 Z" fill="#f2f2f2" fill-opacity="1" stroke="none"/>
 <path id="Path-2" d="M578.806 520 C578.806 528.284 453.893 535 299.806 535 145.719 535 20.806 528.284 20.806 520 20.806 511.716 145.719 505 299.806 505 453.893 505 578.806 511.716 578.806 520 Z" fill="#3f3d56" fill-opacity="1" stroke="none"/>
 <path id="Path-3" d="M452.806 520.517 C452.806 526.231 359.233 530.862 243.806 530.862 128.378 530.862 34.806 526.231 34.806 520.517 34.806 514.804 128.378 510.172 243.806 510.172 359.233 510.172 452.806 514.804 452.806 520.517 Z" fill="#000000" fill-opacity="1" stroke="none"/>
 <path id="Path-4" d="M1121.806 624.5 C1121.806 633.613 996.893 641 842.806 641 688.719 641 563.806 633.613 563.806 624.5 563.806 615.387 688.719 608 842.806 608 996.893 608 1121.806 615.387 1121.806 624.5 Z" fill="#3f3d56" fill-opacity="1" stroke="none"/>
 <path id="Path-5" d="M995.806 625.069 C995.806 631.354 902.233 636.448 786.806 636.448 671.378 636.448 577.806 631.354 577.806 625.069 577.806 618.784 671.378 613.69 786.806 613.69 902.233 613.69 995.806 618.784 995.806 625.069 Z" fill="#000000" fill-opacity="1" stroke="none"/>
 <path id="Path-6" d="M578.946 586 C578.946 590.971 499.234 595 400.903 595 302.572 595 222.859 590.971 222.859 586 222.859 581.029 302.572 577 400.903 577 499.234 577 578.946 581.029 578.946 586 Z" fill="#3f3d56" fill-opacity="1" stroke="none"/>
 <path id="Path-7" d="M171.806 556 C171.806 558.398 133.346 560.342 85.903 560.342 38.46 560.342 0 558.398 0 556 0 553.602 38.46 551.658 85.903 551.658 133.346 551.658 171.806 553.602 171.806 556 Z" fill="#3f3d56" fill-opacity="1" stroke="none"/>
 <path id="Path-8" d="M490.806 97 C490.806 114.673 476.479 129 458.806 129 441.133 129 426.806 114.673 426.806 97 426.806 79.327 441.133 65 458.806 65 476.479 65 490.806 79.327 490.806 97 Z" fill="#2f2e41" fill-opacity="1" stroke="none"/>
 <path id="Path-9" d="M480.306 447.5 L462.306 496.5 C462.306 496.5 447.306 508.5 456.306 512.5 465.306 516.5 483.306 508.5 483.306 508.5 L497.306 472.5 495.306 447.5 Z" fill="#2f2e41" fill-opacity="1" stroke="none"/>
 <path id="Path-10" d="M480.306 447.5 L462.306 496.5 C462.306 496.5 447.306 508.5 456.306 512.5 465.306 516.5 483.306 508.5 483.306 508.5 L497.306 472.5 495.306 447.5 Z" fill="#000000" fill-opacity="1" stroke="none"/>
 <path id="Path-11" d="M481.806 157 L496.806 159 C496.806 159 503.806 214 500.806 218 497.806 222 482.806 238 476.806 234 470.806 230 481.806 157 481.806 157 Z" fill="#575a89" fill-opacity="1" stroke="none"/>
 <path id="Path-12" d="M338.306 257.5 C338.306 257.5 317.306 266.5 313.306 267.5 309.306 268.5 303.306 278.5 310.306 280.5 317.306 282.5 344.306 262.5 344.306 262.5 Z" fill="#a0616a" fill-opacity="1" stroke="none"/>
 <path id="Path-13" d="M487.306 467.5 L498.306 508.5 C498.306 508.5 499.306 523.5 504.306 524.5 509.306 525.5 524.306 519.5 524.306 517.5 524.306 515.5 518.306 499.5 518.306 499.5 518.306 499.5 518.306 487.5 512.306 482.5 506.306 477.5 500.9 460.75 500.9 460.75 Z" fill="#2f2e41" fill-opacity="1" stroke="none"/>
 <path id="Path-14" d="M501.306 373.5 C503.326 378.21 503.076 412.38 500.866 435.12 499.796 446.17 498.266 454.52 496.306 455.5 L481.976 451.92 476.306 450.5 476.156 438.06 475.306 369.5 458.306 298.5 458.306 280.5 501.306 284.5 508.126 295.21 508.306 295.5 C508.306 295.5 498.306 366.5 501.306 373.5 Z" fill="#2f2e41" fill-opacity="1" stroke="none"/>
 <path id="Path-15" d="M492.306 395.5 C494.446 398.71 498.016 417.93 500.866 435.12 499.796 446.17 498.266 454.52 496.306 455.5 L481.976 451.92 C481.756 451.46 481.536 450.98 481.306 450.5 479.476 446.66 477.756 442.42 476.156 438.06 L475.306 369.5 458.306 298.5 458.306 280.5 501.306 284.5 508.126 295.21 468.306 292.5 477.306 331.5 488.306 372.5 C488.306 372.5 488.306 389.5 492.306 395.5 Z" fill="#000000" fill-opacity="1" stroke="none"/>
 <path id="Path-16" d="M421.306 240.5 C421.306 240.5 407.306 271.5 427.306 314.5 439.682 341.259 450.696 368.628 460.306 396.5 460.306 396.5 467.306 429.5 477.306 450.5 487.306 471.5 485.306 472.5 485.306 472.5 L501.306 463.5 C501.306 463.5 492.306 401.5 488.306 395.5 484.306 389.5 484.306 372.5 484.306 372.5 L473.306 331.5 464.306 292.5 508.306 295.5 C508.306 295.5 508.306 238.5 488.306 227.5 Z" fill="#2f2e41" fill-opacity="1" stroke="none"/>
 <path id="Path-17" d="M437.806 112 C437.806 112 437.806 128 432.806 129 427.806 130 417.806 130 414.806 135 411.806 140 437.806 206 437.806 206 L464.806 189 473.806 144 C473.806 144 460.806 136 460.806 132 L460.806 114 Z" fill="#a0616a" fill-opacity="1" stroke="none"/>
 <path id="Path-18" d="M437.806 112 C437.806 112 437.806 128 432.806 129 427.806 130 417.806 130 414.806 135 411.806 140 437.806 206 437.806 206 L464.806 189 473.806 144 C473.806 144 460.806 136 460.806 132 L460.806 114 Z" fill="#000000" fill-opacity="1" stroke="none"/>
 <path id="Path-19" d="M477.306 105.5 C477.306 118.755 466.561 129.5 453.306 129.5 440.051 129.5 429.306 118.755 429.306 105.5 429.306 92.245 440.051 81.5 453.306 81.5 466.561 81.5 477.306 92.245 477.306 105.5 Z" fill="#a0616a" fill-opacity="1" stroke="none"/>
 <path id="Path-20" d="M440.806 186 C440.806 186 431.806 129 429.806 129 427.806 129 399.806 135 397.806 136 395.806 137 388.806 146 388.806 146 L402.806 186 C402.806 186 408.806 214 412.806 219 416.806 224 424.806 238 420.806 240 416.806 242 412.806 245 416.806 245 420.806 245 453.806 239 455.806 242 457.806 245 490.806 231 490.806 230 490.806 229 486.806 182 486.806 182 L496.806 159 466.806 138 Z" fill="#575a89" fill-opacity="1" stroke="none"/>
 <path id="Path-21" d="M398.806 141 L388.806 146 C388.806 146 360.806 210 358.806 211 356.806 212 346.806 231 345.806 235 344.806 239 342.806 252 339.806 254 338.197 255.093 336.528 256.094 334.806 257 334.806 257 340.806 267 343.806 267 346.806 267 356.806 253 356.806 253 356.806 253 378.806 267 384.806 256 390.806 245 405.806 175 405.806 175 Z" fill="#575a89" fill-opacity="1" stroke="none"/>
 <path id="Path-22" d="M477.306 171.5 C477.306 171.5 463.306 137.5 455.306 141.5 447.306 145.5 461.306 169.5 470.306 173.5 Z" fill="#a0616a" fill-opacity="1" stroke="none"/>
 <path id="Path-23" d="M463.306 172.5 L477.336 169.328 480.306 184.5 C480.306 184.5 493.306 207.5 490.306 217.5 487.306 227.5 469.306 243.5 463.306 234.5 457.306 225.5 452.306 211.5 456.306 203.5 460.306 195.5 466.306 176.5 463.306 172.5 Z" fill="#000000" fill-opacity="1" stroke="none"/>
 <path id="Path-24" d="M466.306 170.5 L480.336 167.328 483.306 182.5 C483.306 182.5 496.306 205.5 493.306 215.5 490.306 225.5 472.306 241.5 466.306 232.5 460.306 223.5 455.306 209.5 459.306 201.5 463.306 193.5 469.306 174.5 466.306 170.5 Z" fill="#575a89" fill-opacity="1" stroke="none"/>
 <path id="Path-25" d="M464.684 80.086 C476.688 85.709 484.234 94.93 481.539 100.681 478.845 106.433 466.93 106.537 454.927 100.914 442.924 95.291 435.378 86.07 438.073 80.319 440.767 74.567 452.681 74.463 464.684 80.086 Z" fill="#2f2e41" fill-opacity="1" stroke="none"/>
 <path id="Path-26" d="M491.806 70 C491.806 77.732 485.538 84 477.806 84 470.074 84 463.806 77.732 463.806 70 463.806 62.268 470.074 56 477.806 56 485.538 56 491.806 62.268 491.806 70 Z" fill="#2f2e41" fill-opacity="1" stroke="none"/>
 <path id="Path-27" d="M464.806 65 C464.806 57.851 470.195 51.85 477.304 51.083 471.971 50.5 466.773 53.018 463.923 57.565 461.073 62.112 461.073 67.888 463.923 72.435 466.773 76.982 471.971 79.5 477.306 78.917 470.197 78.151 464.807 72.151 464.806 65 Z" fill="#2f2e41" fill-opacity="1" stroke="none"/>
 <path id="Path-28" d="M64.806 277 L414.806 277 414.806 520 64.806 520 Z" fill="#3f3d56" fill-opacity="1" stroke="none"/>
 <path id="Path-29" d="M92.806 301 L138.806 301 138.806 347 92.806 347 Z" fill="#f2f2f2" fill-opacity="1" stroke="none"/>
 <path id="Path-30" d="M92.806 376 L138.806 376 138.806 422 92.806 422 Z" fill="#f6e05e" fill-opacity="1" stroke="none"/>
 <path id="Path-31" d="M92.806 451 L138.806 451 138.806 497 92.806 497 Z" fill="#f2f2f2" fill-opacity="1" stroke="none"/>
 <path id="Path-32" d="M160.806 315.5 L379.806 315.5 379.806 319.5 160.806 319.5 Z" fill="#f2f2f2" fill-opacity="1" stroke="none"/>
 <path id="Path-33" d="M160.806 328.5 L228.806 328.5 228.806 332.5 160.806 332.5 Z" fill="#f2f2f2" fill-opacity="1" stroke="none"/>
 <path id="Path-34" d="M160.806 390.5 L379.806 390.5 379.806 394.5 160.806 394.5 Z" fill="#f2f2f2" fill-opacity="1" stroke="none"/>
 <path id="Path-35" d="M160.806 403.5 L228.806 403.5 228.806 407.5 160.806 407.5 Z" fill="#f2f2f2" fill-opacity="1" stroke="none"/>
 <path id="Path-36" d="M160.806 465.5 L379.806 465.5 379.806 469.5 160.806 469.5 Z" fill="#f2f2f2" fill-opacity="1" stroke="none"/>
 <path id="Path-37" d="M160.806 478.5 L228.806 478.5 228.806 482.5 160.806 482.5 Z" fill="#f2f2f2" fill-opacity="1" stroke="none"/>
 <path id="Path-38" d="M112.806 529.933 C112.806 550.289 100.706 557.396 85.778 557.396 85.432 557.396 85.086 557.391 84.743 557.384 84.051 557.369 83.365 557.336 82.688 557.289 69.215 556.336 58.75 548.864 58.75 529.933 58.75 510.345 83.78 485.625 85.666 483.792 L85.668 483.789 C85.74 483.717 85.778 483.682 85.778 483.682 85.778 483.682 112.806 509.579 112.806 529.933 Z" fill="#f6e05e" fill-opacity="1" stroke="none"/>
 <path id="Path-39" d="M84.793 554.282 L94.679 540.47 84.768 555.799 84.743 557.384 C84.051 557.369 83.365 557.336 82.688 557.289 L83.753 536.925 83.745 536.766 83.763 536.739 83.865 534.813 73.929 519.447 83.895 533.371 83.919 533.779 84.723 518.392 76.218 502.514 84.827 515.693 85.666 483.792 85.668 483.682 85.668 483.789 85.529 508.944 93.997 498.971 85.494 511.111 85.27 524.888 93.178 511.666 85.238 526.915 85.114 534.575 96.589 516.171 85.069 537.246 Z" fill="#3f3d56" fill-opacity="1" stroke="none"/>
</svg>
